# xmcd
#
# Track frame offsets:
#	150
#	15733
#	34927
#	51809
#	69235
#	86275
#	101217
#	118263
#	131871
#	144964
#	163527
#	179721
#	200082
#	220067
#	235513
#
# Disc length: 3305 seconds
#
# Revision: 0
# Processed by: cddbd v1.5.2PL0 Copyright (c) Steve Scherf et al.
# Submitted via: audiograbber 1.83.01
#
DISCID=d60ce70f
DTITLE=Sound Choice - Country Hits - Vol. 2 SC8414
DYEAR=1900
DGENRE=Karaoke
TTITLE0=Moe Brandy - Hank Williams, You Wrote My Life
TTITLE1=Johnny Lee - Cherokee Fiddle
TTITLE2=The Bellamy Brothers - Sugar Daddy
TTITLE3=Willie Nelson - Blue Skies
TTITLE4=Janie Fricke - Tell Me A Lie
TTITLE5=Donna Fargo - Don't Be Angry
TTITLE6=Ed Bruce - Girls, Women and Ladies
TTITLE7=Conway Twitty - This Time I've Hurt Her More (Than She Loves Me)
TTITLE8=Crystal Gayle - Wrong Road Again
TTITLE9=Emmylou Harris - Together Again
TTITLE10=Ricky Van Shelton - Living Proof
TTITLE11=Keith Whitley - It Ain't Nothin'
TTITLE12=Roseanne Cash - Runaway Train
TTITLE13=Janie Fricke - She's Single Again
TTITLE14=Glen Cambell - Everything A Man Could Need
EXTD=
EXTT0=
EXTT1=
EXTT2=
EXTT3=
EXTT4=
EXTT5=
EXTT6=
EXTT7=
EXTT8=
EXTT9=
EXTT10=
EXTT11=
EXTT12=
EXTT13=
EXTT14=
PLAYORDER=
